<svg xmlns="http://www.w3.org/2000/svg" viewBox="0 0 80 80"><style>.detail{fill:none;stroke:#35726c;stroke-width:2.3;stroke-linecap:square}.eye{fill:#133b39;stroke:none}.gem{fill:#e2fff9}</style><ellipse cx="40" cy="70" rx="25" ry="4" fill="#070d18" opacity=".45"/><g fill="#b7f8f0" stroke="#e2fff9" stroke-width="1.8" stroke-linejoin="miter"><path d="m18 21 13 10 9-14 9 14 13-10-6 24-10 8 10 8v3H24v-3l10-8-10-8z"/><path class="detail" d="M26 42h28M33 49h14M32 57h16"/><path class="gem" d="m40 8 5 5-5 5-5-5zM16 13l5 5-5 5-5-5zM64 13l5 5-5 5-5-5z"/><path d="M24 64h32l5 7H19z"/></g></svg>